<?xml version="1.0" standalone="no"?>
<!DOCTYPE svg PUBLIC "-//W3C//DTD SVG 20010904//EN"
 "http://www.w3.org/TR/2001/REC-SVG-20010904/DTD/svg10.dtd">
<svg version="1.0" xmlns="http://www.w3.org/2000/svg"
 width="512.000000pt" height="512.000000pt" viewBox="0 0 512.000000 512.000000"
 preserveAspectRatio="xMidYMid meet">

<g transform="translate(0.000000,512.000000) scale(0.100000,-0.100000)"
fill="#000000" stroke="none">
<path d="M319 5105 c-44 -24 -49 -57 -49 -352 0 -291 5 -329 48 -352 28 -15
2625 -15 2653 -1 45 25 49 51 49 355 0 311 -4 336 -56 355 -16 6 -520 10
-1322 10 -1108 -1 -1301 -3 -1323 -15z m272 -180 c41 -22 49 -49 49 -180 0
-104 -2 -116 -22 -140 -14 -15 -38 -28 -60 -32 -32 -5 -41 -1 -68 25 l-30 30
0 124 c0 132 8 160 54 178 31 13 44 12 77 -5z m389 -21 c24 -24 25 -29 25
-150 l0 -126 -33 -29 c-36 -32 -60 -36 -101 -14 -43 22 -53 59 -49 183 2 93 6
113 23 132 41 46 91 47 135 4z m340 21 c16 -8 34 -24 40 -34 5 -11 10 -74 10
-140 0 -112 -2 -122 -24 -148 -19 -22 -32 -28 -66 -28 -34 0 -47 6 -66 28 -22
26 -24 36 -24 148 0 130 6 151 48 173 35 19 46 19 82 1z m390 -21 c23 -23 25
-32 28 -138 4 -130 -7 -165 -57 -186 -61 -25 -116 12 -127 87 -3 24 -4 82 -2
128 3 65 9 89 24 106 40 45 90 46 134 3z m368 0 c20 -23 22 -35 22 -150 l0
-126 -30 -30 c-27 -26 -36 -30 -68 -25 -22 4 -46 17 -59 32 -21 24 -23 36 -23
140 0 62 4 125 10 139 21 57 105 69 148 20z m337 24 c44 -20 55 -56 55 -172 0
-117 -10 -150 -51 -172 -40 -20 -63 -17 -98 12 l-31 26 0 132 c0 125 1 134 23
153 37 34 62 39 102 21z m392 -20 c22 -20 23 -29 23 -154 l0 -132 -31 -26
c-17 -14 -39 -26 -50 -26 -32 0 -74 26 -87 55 -17 36 -15 233 2 264 29 53 97
62 143 19z"/>
<path d="M270 3896 c-129 -172 -243 -333 -252 -357 -14 -38 -17 -86 -17 -326
l-1 -283 1646 0 1645 0 -3 298 c-3 275 -4 300 -23 333 -11 20 -123 174 -250
343 l-230 306 -1140 0 -1141 0 -234 -314z m2717 -358 c37 -37 37 -89 0 -126
l-27 -27 -1315 0 -1315 0 -26 26 c-48 48 -24 139 40 152 11 3 605 4 1318 3
l1298 -1 27 -27z"/>
<path d="M0 1920 l0 -820 860 0 c473 0 860 1 860 3 0 2 -16 50 -35 107 -43
128 -46 201 -11 275 26 58 88 117 140 136 35 13 36 14 96 195 67 200 99 258
169 310 70 51 119 64 245 64 149 0 177 9 250 82 34 33 84 71 111 86 45 24 61
27 150 27 121 0 156 -15 255 -110 66 -63 111 -85 173 -85 l27 0 0 275 0 275
-1645 0 -1645 0 0 -820z"/>
<path d="M2767 2191 c-21 -11 -56 -40 -78 -65 -24 -27 -66 -58 -105 -77 -63
-31 -73 -33 -212 -38 -133 -5 -150 -8 -180 -29 -17 -13 -37 -33 -43 -44 -10
-18 -99 -276 -99 -285 0 -2 353 -3 785 -3 432 0 785 1 785 3 0 2 -20 62 -44
133 -71 214 -74 216 -276 224 -176 8 -226 26 -324 120 -85 81 -139 97 -209 61z"/>
<path d="M1856 1429 c-14 -17 -26 -40 -26 -52 0 -12 99 -320 221 -685 207
-622 223 -663 249 -677 25 -13 108 -15 539 -15 l511 0 29 27 c25 24 52 97 185
498 86 259 156 473 156 478 0 4 -85 7 -189 7 l-189 0 -26 31 c-14 17 -26 39
-26 50 0 32 26 74 55 87 19 9 232 12 846 12 717 0 825 2 852 15 94 46 101 180
12 235 -32 20 -46 20 -1603 20 l-1570 0 -26 -31z"/>
<path d="M0 570 c0 -314 1 -344 20 -392 26 -68 90 -133 158 -158 51 -19 79
-20 982 -20 l928 0 -151 455 -152 455 -892 0 -893 0 0 -340z m322 149 c37 -20
48 -69 48 -214 l0 -135 135 0 c145 0 194 -11 214 -48 15 -29 14 -74 -4 -98
-28 -40 -61 -45 -273 -42 l-202 3 -27 28 -28 27 -3 202 c-3 212 2 245 42 273
24 18 69 19 98 4z"/>
</g>
</svg>
